<mxfile host="app.diagrams.net" modified="2021-08-22T12:23:18.968Z" agent="5.0 (Macintosh; Intel Mac OS X 10_15_7) AppleWebKit/537.36 (KHTML, like Gecko) Chrome/86.0.4240.193 Safari/537.36" etag="LgjG4lbJy3rzLoJZNOLL" version="14.9.8" type="github">
  <diagram id="CiHEB5EdygiSyAVfYV6F" name="Page-1">
    <mxGraphModel dx="1773" dy="536" grid="1" gridSize="10" guides="1" tooltips="1" connect="1" arrows="1" fold="1" page="1" pageScale="1" pageWidth="827" pageHeight="1169" math="0" shadow="0">
      <root>
        <mxCell id="0" />
        <mxCell id="1" parent="0" />
        <mxCell id="MrYeKg7zcSNxE-EKz_dD-4" style="rounded=0;orthogonalLoop=1;jettySize=auto;html=1;exitX=0.5;exitY=1;exitDx=0;exitDy=0;entryX=0.5;entryY=0;entryDx=0;entryDy=0;startArrow=classic;startFill=1;endArrow=none;endFill=0;fillColor=#dae8fc;strokeColor=#6c8ebf;" edge="1" parent="1" source="MrYeKg7zcSNxE-EKz_dD-1" target="MrYeKg7zcSNxE-EKz_dD-2">
          <mxGeometry relative="1" as="geometry" />
        </mxCell>
        <mxCell id="MrYeKg7zcSNxE-EKz_dD-5" style="rounded=0;orthogonalLoop=1;jettySize=auto;html=1;exitX=0.5;exitY=1;exitDx=0;exitDy=0;entryX=0.5;entryY=0;entryDx=0;entryDy=0;startArrow=classic;startFill=1;endArrow=none;endFill=0;fillColor=#dae8fc;strokeColor=#6c8ebf;" edge="1" parent="1" source="MrYeKg7zcSNxE-EKz_dD-1" target="MrYeKg7zcSNxE-EKz_dD-3">
          <mxGeometry relative="1" as="geometry" />
        </mxCell>
        <mxCell id="MrYeKg7zcSNxE-EKz_dD-1" value="中国" style="rounded=1;whiteSpace=wrap;html=1;fillColor=#dae8fc;strokeColor=#6c8ebf;" vertex="1" parent="1">
          <mxGeometry x="250" y="160" width="120" height="60" as="geometry" />
        </mxCell>
        <mxCell id="MrYeKg7zcSNxE-EKz_dD-10" style="rounded=0;orthogonalLoop=1;jettySize=auto;html=1;exitX=0.5;exitY=1;exitDx=0;exitDy=0;entryX=0.5;entryY=0;entryDx=0;entryDy=0;startArrow=classic;startFill=1;endArrow=none;endFill=0;fillColor=#dae8fc;strokeColor=#6c8ebf;" edge="1" parent="1" source="MrYeKg7zcSNxE-EKz_dD-2" target="MrYeKg7zcSNxE-EKz_dD-6">
          <mxGeometry relative="1" as="geometry" />
        </mxCell>
        <mxCell id="MrYeKg7zcSNxE-EKz_dD-11" style="rounded=0;orthogonalLoop=1;jettySize=auto;html=1;exitX=0.5;exitY=1;exitDx=0;exitDy=0;entryX=0.5;entryY=0;entryDx=0;entryDy=0;startArrow=classic;startFill=1;endArrow=none;endFill=0;fillColor=#dae8fc;strokeColor=#6c8ebf;" edge="1" parent="1" source="MrYeKg7zcSNxE-EKz_dD-2" target="MrYeKg7zcSNxE-EKz_dD-7">
          <mxGeometry relative="1" as="geometry" />
        </mxCell>
        <mxCell id="MrYeKg7zcSNxE-EKz_dD-2" value="山西省" style="rounded=1;whiteSpace=wrap;html=1;fillColor=#dae8fc;strokeColor=#6c8ebf;" vertex="1" parent="1">
          <mxGeometry x="160" y="260" width="120" height="60" as="geometry" />
        </mxCell>
        <mxCell id="MrYeKg7zcSNxE-EKz_dD-12" style="rounded=0;orthogonalLoop=1;jettySize=auto;html=1;exitX=0.5;exitY=1;exitDx=0;exitDy=0;entryX=0.5;entryY=0;entryDx=0;entryDy=0;startArrow=classic;startFill=1;endArrow=none;endFill=0;fillColor=#dae8fc;strokeColor=#6c8ebf;" edge="1" parent="1" source="MrYeKg7zcSNxE-EKz_dD-3" target="MrYeKg7zcSNxE-EKz_dD-8">
          <mxGeometry relative="1" as="geometry" />
        </mxCell>
        <mxCell id="MrYeKg7zcSNxE-EKz_dD-13" style="rounded=0;orthogonalLoop=1;jettySize=auto;html=1;exitX=0.5;exitY=1;exitDx=0;exitDy=0;entryX=0.5;entryY=0;entryDx=0;entryDy=0;endArrow=none;endFill=0;startArrow=classic;startFill=1;fillColor=#dae8fc;strokeColor=#6c8ebf;" edge="1" parent="1" source="MrYeKg7zcSNxE-EKz_dD-3" target="MrYeKg7zcSNxE-EKz_dD-9">
          <mxGeometry relative="1" as="geometry" />
        </mxCell>
        <mxCell id="MrYeKg7zcSNxE-EKz_dD-3" value="河南省" style="rounded=1;whiteSpace=wrap;html=1;fillColor=#dae8fc;strokeColor=#6c8ebf;" vertex="1" parent="1">
          <mxGeometry x="330" y="260" width="120" height="60" as="geometry" />
        </mxCell>
        <mxCell id="MrYeKg7zcSNxE-EKz_dD-6" value="太原市" style="rounded=1;whiteSpace=wrap;html=1;fillColor=#dae8fc;strokeColor=#6c8ebf;" vertex="1" parent="1">
          <mxGeometry x="50" y="360" width="120" height="60" as="geometry" />
        </mxCell>
        <mxCell id="MrYeKg7zcSNxE-EKz_dD-7" value="吕梁市" style="rounded=1;whiteSpace=wrap;html=1;fillColor=#dae8fc;strokeColor=#6c8ebf;" vertex="1" parent="1">
          <mxGeometry x="180" y="360" width="120" height="60" as="geometry" />
        </mxCell>
        <mxCell id="MrYeKg7zcSNxE-EKz_dD-8" value="郑州市" style="rounded=1;whiteSpace=wrap;html=1;fillColor=#dae8fc;strokeColor=#6c8ebf;" vertex="1" parent="1">
          <mxGeometry x="310" y="360" width="120" height="60" as="geometry" />
        </mxCell>
        <mxCell id="MrYeKg7zcSNxE-EKz_dD-9" value="洛阳市" style="rounded=1;whiteSpace=wrap;html=1;fillColor=#dae8fc;strokeColor=#6c8ebf;" vertex="1" parent="1">
          <mxGeometry x="460" y="360" width="120" height="60" as="geometry" />
        </mxCell>
        <mxCell id="MrYeKg7zcSNxE-EKz_dD-14" style="rounded=0;orthogonalLoop=1;jettySize=auto;html=1;exitX=0.5;exitY=1;exitDx=0;exitDy=0;entryX=0.5;entryY=0;entryDx=0;entryDy=0;fillColor=#ffe6cc;strokeColor=#d79b00;" edge="1" parent="1" source="MrYeKg7zcSNxE-EKz_dD-16" target="MrYeKg7zcSNxE-EKz_dD-19">
          <mxGeometry relative="1" as="geometry" />
        </mxCell>
        <mxCell id="MrYeKg7zcSNxE-EKz_dD-15" style="rounded=0;orthogonalLoop=1;jettySize=auto;html=1;exitX=0.5;exitY=1;exitDx=0;exitDy=0;entryX=0.5;entryY=0;entryDx=0;entryDy=0;fillColor=#ffe6cc;strokeColor=#d79b00;" edge="1" parent="1" source="MrYeKg7zcSNxE-EKz_dD-16" target="MrYeKg7zcSNxE-EKz_dD-22">
          <mxGeometry relative="1" as="geometry" />
        </mxCell>
        <mxCell id="MrYeKg7zcSNxE-EKz_dD-16" value="中国" style="rounded=1;whiteSpace=wrap;html=1;fillColor=#ffe6cc;strokeColor=#d79b00;" vertex="1" parent="1">
          <mxGeometry x="245" y="500" width="120" height="60" as="geometry" />
        </mxCell>
        <mxCell id="MrYeKg7zcSNxE-EKz_dD-17" style="rounded=0;orthogonalLoop=1;jettySize=auto;html=1;exitX=0.5;exitY=1;exitDx=0;exitDy=0;entryX=0.5;entryY=0;entryDx=0;entryDy=0;fillColor=#ffe6cc;strokeColor=#d79b00;" edge="1" parent="1" source="MrYeKg7zcSNxE-EKz_dD-19" target="MrYeKg7zcSNxE-EKz_dD-23">
          <mxGeometry relative="1" as="geometry" />
        </mxCell>
        <mxCell id="MrYeKg7zcSNxE-EKz_dD-18" style="rounded=0;orthogonalLoop=1;jettySize=auto;html=1;exitX=0.5;exitY=1;exitDx=0;exitDy=0;entryX=0.5;entryY=0;entryDx=0;entryDy=0;fillColor=#ffe6cc;strokeColor=#d79b00;" edge="1" parent="1" source="MrYeKg7zcSNxE-EKz_dD-19" target="MrYeKg7zcSNxE-EKz_dD-24">
          <mxGeometry relative="1" as="geometry" />
        </mxCell>
        <mxCell id="MrYeKg7zcSNxE-EKz_dD-19" value="山西省" style="rounded=1;whiteSpace=wrap;html=1;fillColor=#ffe6cc;strokeColor=#d79b00;" vertex="1" parent="1">
          <mxGeometry x="155" y="600" width="120" height="60" as="geometry" />
        </mxCell>
        <mxCell id="MrYeKg7zcSNxE-EKz_dD-20" style="rounded=0;orthogonalLoop=1;jettySize=auto;html=1;exitX=0.5;exitY=1;exitDx=0;exitDy=0;entryX=0.5;entryY=0;entryDx=0;entryDy=0;fillColor=#ffe6cc;strokeColor=#d79b00;" edge="1" parent="1" source="MrYeKg7zcSNxE-EKz_dD-22" target="MrYeKg7zcSNxE-EKz_dD-25">
          <mxGeometry relative="1" as="geometry" />
        </mxCell>
        <mxCell id="MrYeKg7zcSNxE-EKz_dD-21" style="rounded=0;orthogonalLoop=1;jettySize=auto;html=1;exitX=0.5;exitY=1;exitDx=0;exitDy=0;entryX=0.5;entryY=0;entryDx=0;entryDy=0;fillColor=#ffe6cc;strokeColor=#d79b00;" edge="1" parent="1" source="MrYeKg7zcSNxE-EKz_dD-22" target="MrYeKg7zcSNxE-EKz_dD-26">
          <mxGeometry relative="1" as="geometry" />
        </mxCell>
        <mxCell id="MrYeKg7zcSNxE-EKz_dD-22" value="河南省" style="rounded=1;whiteSpace=wrap;html=1;fillColor=#ffe6cc;strokeColor=#d79b00;" vertex="1" parent="1">
          <mxGeometry x="325" y="600" width="120" height="60" as="geometry" />
        </mxCell>
        <mxCell id="MrYeKg7zcSNxE-EKz_dD-23" value="太原市" style="rounded=1;whiteSpace=wrap;html=1;fillColor=#ffe6cc;strokeColor=#d79b00;" vertex="1" parent="1">
          <mxGeometry x="45" y="700" width="120" height="60" as="geometry" />
        </mxCell>
        <mxCell id="MrYeKg7zcSNxE-EKz_dD-24" value="吕梁市" style="rounded=1;whiteSpace=wrap;html=1;fillColor=#ffe6cc;strokeColor=#d79b00;" vertex="1" parent="1">
          <mxGeometry x="175" y="700" width="120" height="60" as="geometry" />
        </mxCell>
        <mxCell id="MrYeKg7zcSNxE-EKz_dD-25" value="郑州市" style="rounded=1;whiteSpace=wrap;html=1;fillColor=#ffe6cc;strokeColor=#d79b00;" vertex="1" parent="1">
          <mxGeometry x="305" y="700" width="120" height="60" as="geometry" />
        </mxCell>
        <mxCell id="MrYeKg7zcSNxE-EKz_dD-26" value="洛阳市" style="rounded=1;whiteSpace=wrap;html=1;fillColor=#ffe6cc;strokeColor=#d79b00;" vertex="1" parent="1">
          <mxGeometry x="455" y="700" width="120" height="60" as="geometry" />
        </mxCell>
        <mxCell id="MrYeKg7zcSNxE-EKz_dD-28" value="递归" style="text;html=1;align=center;verticalAlign=middle;resizable=0;points=[];autosize=1;strokeColor=none;" vertex="1" parent="1">
          <mxGeometry x="-30" y="620" width="40" height="20" as="geometry" />
        </mxCell>
        <mxCell id="MrYeKg7zcSNxE-EKz_dD-29" value="递推" style="text;html=1;align=center;verticalAlign=middle;resizable=0;points=[];autosize=1;strokeColor=none;" vertex="1" parent="1">
          <mxGeometry x="-30" y="270" width="40" height="20" as="geometry" />
        </mxCell>
      </root>
    </mxGraphModel>
  </diagram>
</mxfile>
